<svg width="187" height="32" viewBox="0 0 187 32" fill="none" xmlns="http://www.w3.org/2000/svg">
<path d="M66.2032 31.169C65.6089 31.169 64.9237 31.0782 64.1478 30.8966L61.6961 30.228L62.3648 28.2221C63.7516 28.7174 64.9072 28.965 65.8318 28.965C66.3271 28.965 66.7398 28.8495 67.07 28.6183C67.4002 28.3872 67.5653 28.0735 67.5653 27.6773C67.5653 27.281 67.458 26.9839 67.2433 26.7858C67.0287 26.5876 66.6325 26.4143 66.0546 26.2657L64.7174 25.919C62.8683 25.4402 61.9438 24.3506 61.9438 22.6501C61.9438 21.6265 62.3317 20.7845 63.1077 20.1242C63.9002 19.4638 64.932 19.1336 66.2032 19.1336C66.715 19.1336 67.3176 19.2244 68.011 19.406L70.4627 20.0746L69.7941 22.0805C68.4568 21.5853 67.4415 21.3376 66.7481 21.3376C66.2858 21.3376 65.8978 21.4614 65.5841 21.7091C65.2704 21.9402 65.1136 22.2456 65.1136 22.6254C65.1136 23.0216 65.2209 23.3188 65.4355 23.5169C65.6502 23.715 66.0464 23.8883 66.6242 24.0369L67.9367 24.3836C68.9273 24.6478 69.6372 25.0523 70.0665 25.5971C70.4957 26.1254 70.7103 26.8105 70.7103 27.6525C70.7103 28.6596 70.3306 29.5016 69.5712 30.1785C68.8117 30.8389 67.6891 31.169 66.2032 31.169ZM76.7946 31.169C75.5564 31.169 74.6814 30.8636 74.1696 30.2528C73.6743 29.6419 73.4267 28.7091 73.4267 27.4544V21.5357H71.5941V19.3565H73.4267V16.459L76.5717 15.8399V19.3565H79.2958V21.5357H76.5717V27.5039C76.5717 28.478 76.968 28.965 77.7604 28.965C78.2392 28.965 78.751 28.8164 79.2958 28.5193L79.7911 30.3766C78.8831 30.9049 77.8843 31.169 76.7946 31.169ZM84.5056 31.169C83.383 31.169 82.4914 30.8223 81.8311 30.1289C81.1707 29.4355 80.8405 28.6101 80.8405 27.6525C80.8405 26.9426 81.0716 26.373 81.5339 25.9438C82.0127 25.498 82.7556 25.1513 83.7627 24.9037L87.7497 23.9131V22.8978C87.7497 22.419 87.6012 22.0393 87.304 21.7586C87.0233 21.4779 86.6271 21.3376 86.1153 21.3376C85.5375 21.3376 84.2332 21.7751 82.2025 22.6501L81.3358 20.6442L84.1589 19.6041C85.0174 19.2904 85.6448 19.1336 86.041 19.1336C87.5434 19.1336 88.7238 19.5298 89.5823 20.3223C90.4573 21.0982 90.8948 22.1218 90.8948 23.393V27.6525C90.8948 27.9662 90.9443 28.4367 91.0434 29.0641C91.159 29.6749 91.3075 30.195 91.4892 30.6242L88.7898 31.169C88.4597 30.8058 88.113 30.3023 87.7497 29.6584C86.6436 30.6655 85.5622 31.169 84.5056 31.169ZM85.62 28.965C86.2639 28.965 86.9738 28.5936 87.7497 27.8506V25.3494L85.2733 26.0676C84.4809 26.2987 84.0846 26.7362 84.0846 27.3801C84.0846 27.8754 84.225 28.2634 84.5056 28.544C84.7863 28.8247 85.1577 28.965 85.62 28.965ZM97.4361 31.169C96.1979 31.169 95.3228 30.8636 94.8111 30.2528C94.3158 29.6419 94.0681 28.7091 94.0681 27.4544V21.5357H92.2356V19.3565H94.0681V16.459L97.2132 15.8399V19.3565H99.9373V21.5357H97.2132V27.5039C97.2132 28.478 97.6094 28.965 98.4019 28.965C98.8807 28.965 99.3925 28.8164 99.9373 28.5193L100.433 30.3766C99.5245 30.9049 98.5257 31.169 97.4361 31.169ZM132.412 30.9462H129.267V24.1855C129.267 23.1949 129.119 22.4768 128.822 22.031C128.541 21.5687 128.087 21.3376 127.46 21.3376C126.832 21.3376 126.155 21.7091 125.429 22.452V30.9462H122.284V24.1855C122.284 23.1949 122.143 22.4768 121.863 22.031C121.582 21.5687 121.12 21.3376 120.476 21.3376C119.865 21.3376 119.188 21.7091 118.445 22.452V30.9462H115.3V22.6501C115.3 22.3364 115.242 21.8742 115.127 21.2633C115.028 20.636 114.887 20.1076 114.706 19.6784L117.38 19.1336C117.727 19.4803 118.082 19.9838 118.445 20.6442C119.485 19.6371 120.567 19.1336 121.689 19.1336C123.357 19.1336 124.488 19.7197 125.082 20.8919C125.445 20.4131 125.965 20.0003 126.642 19.6536C127.319 19.3069 127.996 19.1336 128.673 19.1336C129.928 19.1336 130.86 19.4968 131.471 20.2232C132.099 20.9496 132.412 22.0805 132.412 23.6159V30.9462ZM138.122 31.169C137 31.169 136.108 30.8223 135.448 30.1289C134.787 29.4355 134.457 28.6101 134.457 27.6525C134.457 26.9426 134.688 26.373 135.151 25.9438C135.629 25.498 136.372 25.1513 137.379 24.9037L141.366 23.9131V22.8978C141.366 22.419 141.218 22.0393 140.921 21.7586C140.64 21.4779 140.244 21.3376 139.732 21.3376C139.154 21.3376 137.85 21.7751 135.819 22.6501L134.952 20.6442L137.776 19.6041C138.634 19.2904 139.261 19.1336 139.658 19.1336C141.16 19.1336 142.34 19.5298 143.199 20.3223C144.074 21.0982 144.511 22.1218 144.511 23.393V27.6525C144.511 27.9662 144.561 28.4367 144.66 29.0641C144.776 29.6749 144.924 30.195 145.106 30.6242L142.407 31.169C142.076 30.8058 141.73 30.3023 141.366 29.6584C140.26 30.6655 139.179 31.169 138.122 31.169ZM139.237 28.965C139.881 28.965 140.59 28.5936 141.366 27.8506V25.3494L138.89 26.0676C138.098 26.2987 137.701 26.7362 137.701 27.3801C137.701 27.8754 137.842 28.2634 138.122 28.544C138.403 28.8247 138.774 28.965 139.237 28.965ZM150.477 30.9462H147.332V22.6501C147.332 22.3364 147.275 21.8742 147.159 21.2633C147.06 20.636 146.92 20.1076 146.738 19.6784L149.413 19.1336C149.924 19.6454 150.279 20.3388 150.477 21.2138C150.808 20.5534 151.245 20.0416 151.79 19.6784C152.351 19.3152 152.954 19.1336 153.598 19.1336C153.961 19.1336 154.291 19.1914 154.588 19.3069L154.043 22.0062H153.226C152.45 22.0062 151.839 22.1961 151.394 22.5758C150.964 22.939 150.659 23.5499 150.477 24.4084V30.9462ZM166.831 30.9462H162.968L159.129 24.9532V30.9462H155.984V14.4036L159.129 13.7845V24.0865L163.042 19.3565H166.583L161.928 24.5322L166.831 30.9462ZM172.468 31.169C170.603 31.169 169.191 30.616 168.234 29.5098C167.293 28.3872 166.822 26.9178 166.822 25.1018C166.822 23.2857 167.309 21.8412 168.283 20.768C169.257 19.6784 170.611 19.1336 172.344 19.1336C175.696 19.1336 177.372 20.8753 177.372 24.3589C177.372 24.7221 177.33 25.0275 177.248 25.2751H170.066C170.066 26.5134 170.289 27.4379 170.735 28.0487C171.197 28.6596 171.833 28.965 172.642 28.965C173.55 28.965 174.738 28.6348 176.208 27.9744L177.074 29.9804L174.449 30.9462C174.004 31.0948 173.343 31.169 172.468 31.169ZM172.171 21.3376C171.511 21.3376 170.991 21.5687 170.611 22.031C170.248 22.4933 170.066 23.0711 170.066 23.7645H174.103C174.103 22.1466 173.459 21.3376 172.171 21.3376ZM183.539 31.169C182.3 31.169 181.425 30.8636 180.913 30.2528C180.418 29.6419 180.171 28.7091 180.171 27.4544V21.5357H178.338V19.3565H180.171V16.459L183.316 15.8399V19.3565H186.04V21.5357H183.316V27.5039C183.316 28.478 183.712 28.965 184.504 28.965C184.983 28.965 185.495 28.8164 186.04 28.5193L186.535 30.3766C185.627 30.9049 184.628 31.169 183.539 31.169Z" fill="#54618E"/>
<path d="M111.71 30.9462H108.713V27.1325H101.952L101.284 25.2008L108.342 15.097H111.71V24.8046H113.295V27.1325H111.71V30.9462ZM108.713 24.8046V18.3659L104.33 24.8046H108.713Z" fill="#D653D2"/>
<mask id="mask0_1458_22843" style="mask-type:alpha" maskUnits="userSpaceOnUse" x="0" y="0" width="47" height="23">
<ellipse cx="23.5" cy="11.4836" rx="23.5" ry="11.049" fill="url(#paint0_linear_1458_22843)"/>
</mask>
<g mask="url(#mask0_1458_22843)">
<ellipse cx="23.5" cy="11.4836" rx="23.5" ry="11.049" fill="url(#paint1_linear_1458_22843)"/>
<path d="M30.973 14.5496V2.26862C30.973 2.08078 30.9848 1.87638 31.0082 1.65539C31.0553 1.43441 31.1023 1.20791 31.1493 0.975878L9.57625 14.5496H30.973ZM50.9423 14.5496V15.4115C50.9423 15.533 50.86 15.6324 50.6955 15.7098C50.5545 15.7761 50.3195 15.8092 49.9905 15.8092H33.934V22.5381H30.973V15.8092H7.39075C7.03825 15.8092 6.768 15.7761 6.58 15.7098C6.392 15.6324 6.26275 15.533 6.19225 15.4115L5.875 14.6325L30.9377 -0.946655H33.934V14.5496H50.9423Z" fill="white"/>
</g>
<defs>
<linearGradient id="paint0_linear_1458_22843" x1="54.05" y1="-6.19492" x2="42.2886" y2="31.509" gradientUnits="userSpaceOnUse">
<stop stop-color="#FF00AA"/>
<stop offset="1" stop-color="#8912DE"/>
</linearGradient>
<linearGradient id="paint1_linear_1458_22843" x1="54.05" y1="-6.19492" x2="42.2886" y2="31.509" gradientUnits="userSpaceOnUse">
<stop stop-color="#FF00AA"/>
<stop offset="1" stop-color="#8912DE"/>
</linearGradient>
</defs>
</svg>
